<svg width="104" height="104" viewBox="0 0 104 104" fill="none" xmlns="http://www.w3.org/2000/svg">
<path d="M38.9853 5.60884C64.7197 -1.28668 91.1715 13.9853 98.067 39.7197C104.963 65.4541 89.6906 91.9059 63.9562 98.8014C38.2218 105.697 11.77 90.425 4.87446 64.6905C-2.02105 38.9561 13.2509 12.5044 38.9853 5.60884Z" fill="url(#paint0_linear_950_2350)" fill-opacity="0.7"/>
<path d="M25.5407 82.4743L25.5407 84.9743L25.5407 84.9743L25.5407 82.4743ZM77.7868 82.4735L77.7868 79.9735L77.7867 79.9735L77.7868 82.4735ZM72.2733 60.1601H74.7733H72.2733ZM42.1483 60.1601H39.6483C39.6483 60.1963 39.6491 60.2325 39.6507 60.2687L42.1483 60.1601ZM34.3574 36.1367C34.3574 37.5174 35.4767 38.6367 36.8574 38.6367C38.2381 38.6367 39.3574 37.5174 39.3574 36.1367H34.3574ZM64.1309 37.967C64.1309 39.3477 65.2501 40.467 66.6309 40.467C68.0116 40.467 69.1309 39.3477 69.1309 37.967H64.1309ZM25.5407 79.9743C22.852 79.9743 20.6895 77.8118 20.6895 75.1231H15.6895C15.6895 80.5732 20.0905 84.9743 25.5407 84.9743V79.9743ZM20.6895 75.1231V42.0426H15.6895V75.1231H20.6895ZM20.6895 42.0426C20.6895 39.3539 22.852 37.1914 25.5407 37.1914V32.1914C20.0905 32.1914 15.6895 36.5925 15.6895 42.0426H20.6895ZM25.5407 37.1914H77.7868V32.1914H25.5407V37.1914ZM77.7868 37.1914C80.4755 37.1914 82.638 39.3539 82.638 42.0426H87.638C87.638 36.5925 83.2369 32.1914 77.7868 32.1914V37.1914ZM82.638 42.0426V75.1887H87.638V42.0426H82.638ZM82.638 75.1887C82.638 77.8479 80.5052 79.9735 77.7868 79.9735V84.9735C83.2072 84.9735 87.638 80.6684 87.638 75.1887H82.638ZM77.7867 79.9735L25.5406 79.9743L25.5407 84.9743L77.7868 84.9735L77.7867 79.9735ZM19.1738 57.7383H30.9902V52.7383H19.1738V57.7383ZM73.3223 57.7383H85.1387V52.7383H73.3223V57.7383ZM42.1504 57.7383H61.1152V52.7383H42.1504V57.7383ZM69.451 60.4824H63.9376V65.4824H69.451V60.4824ZM63.9376 60.4824C63.8251 60.4824 63.7519 60.4427 63.7034 60.3942C63.6549 60.3457 63.6152 60.2725 63.6152 60.1601H58.6152C58.6152 63.1161 60.9816 65.4824 63.9376 65.4824V60.4824ZM63.6152 60.1601V53.9903H58.6152V60.1601H63.6152ZM63.6152 53.9903C63.6152 53.8779 63.6549 53.8047 63.7034 53.7562C63.752 53.7077 63.8251 53.668 63.9376 53.668V48.668C60.9816 48.668 58.6152 51.0343 58.6152 53.9903H63.6152ZM63.9376 53.668H69.451V48.668H63.9376V53.668ZM69.451 53.668C69.5634 53.668 69.6366 53.7077 69.6851 53.7562C69.7336 53.8047 69.7733 53.8779 69.7733 53.9903H74.7733C74.7733 51.0343 72.407 48.668 69.451 48.668V53.668ZM69.7733 53.9903V60.1601H74.7733V53.9903H69.7733ZM69.7733 60.1601C69.7733 60.2209 69.7467 60.3069 69.671 60.3838C69.6009 60.4551 69.5252 60.4824 69.451 60.4824V65.4824C72.4445 65.4824 74.7733 63.0126 74.7733 60.1601L69.7733 60.1601ZM39.326 60.4824H33.8126V65.4824H39.326V60.4824ZM33.8126 60.4824C33.7001 60.4824 33.6269 60.4427 33.5784 60.3942C33.5299 60.3457 33.4902 60.2725 33.4902 60.1601H28.4902C28.4902 63.1161 30.8566 65.4824 33.8126 65.4824V60.4824ZM33.4902 60.1601V53.9903H28.4902V60.1601H33.4902ZM33.4902 53.9903C33.4902 53.8779 33.5299 53.8047 33.5784 53.7562C33.627 53.7077 33.7001 53.668 33.8126 53.668V48.668C30.8566 48.668 28.4902 51.0343 28.4902 53.9903H33.4902ZM33.8126 53.668H39.326V48.668H33.8126V53.668ZM39.326 53.668C39.4384 53.668 39.5116 53.7077 39.5601 53.7562C39.6086 53.8047 39.6483 53.8779 39.6483 53.9903H44.6483C44.6483 51.0343 42.282 48.668 39.326 48.668V53.668ZM39.6483 53.9903V60.1601H44.6483V53.9903H39.6483ZM39.6507 60.2687C39.6507 60.2687 39.6507 60.2685 39.6507 60.2682C39.6507 60.268 39.6507 60.2682 39.6506 60.269C39.6503 60.2703 39.6493 60.2753 39.6457 60.2839C39.6381 60.3024 39.6201 60.3342 39.5847 60.3696C39.5089 60.4454 39.4123 60.4824 39.326 60.4824V65.4824C42.2188 65.4824 44.7779 63.0866 44.646 60.0515L39.6507 60.2687ZM69.1309 51.1043V34.6953H64.1309V51.1043H69.1309ZM39.0684 51.1043V34.6953H34.0684V51.1043H39.0684ZM39.3574 36.1367V31.1172H34.3574V36.1367H39.3574ZM46.8574 23.6172H56.6309V18.6172H46.8574V23.6172ZM64.1309 31.1172V37.967H69.1309V31.1172H64.1309ZM56.6309 23.6172C60.773 23.6172 64.1309 26.9751 64.1309 31.1172H69.1309C69.1309 24.2136 63.5344 18.6172 56.6309 18.6172V23.6172ZM39.3574 31.1172C39.3574 26.9751 42.7153 23.6172 46.8574 23.6172V18.6172C39.9539 18.6172 34.3574 24.2136 34.3574 31.1172H39.3574Z" fill="url(#paint1_linear_950_2350)"/>
<defs>
<linearGradient id="paint0_linear_950_2350" x1="4.87394" y1="64.6889" x2="98.0665" y2="39.718" gradientUnits="userSpaceOnUse">
<stop stop-color="#FFD1E1" stop-opacity="0"/>
<stop offset="1" stop-color="#F8B6CD"/>
</linearGradient>
<linearGradient id="paint1_linear_950_2350" x1="66.625" y1="11.782" x2="47.7768" y2="93.3325" gradientUnits="userSpaceOnUse">
<stop offset="0.107632" stop-color="#3A9049"/>
<stop offset="0.352428" stop-color="#314497"/>
<stop offset="0.638891" stop-color="#D31984"/>
<stop offset="1" stop-color="#FACD01"/>
</linearGradient>
</defs>
</svg>
